<svg id="Capa_1" enable-background="new 0 0 512 512" height="512" viewBox="0 0 512 512" width="512" xmlns="http://www.w3.org/2000/svg"><path d="m490.299 185.717h-106.219l-59.584-136.433c-3.315-7.591-12.157-11.06-19.749-7.743-7.592 3.315-11.059 12.158-7.743 19.75l54.34 124.427h-190.688l54.34-124.427c3.315-7.592-.151-16.434-7.743-19.75-7.591-3.317-16.435.15-19.749 7.743l-59.584 136.433h-106.219c-13.895 0-24.207 12.579-21.167 25.82l55.935 243.63c2.221 9.674 11.015 16.55 21.167 16.55h356.728c10.152 0 18.946-6.876 21.167-16.55l55.935-243.63c3.04-13.24-7.273-25.82-21.167-25.82zm-359.557 46.004c-2.004 0-4.041-.404-5.996-1.258-7.592-3.315-11.059-12.157-7.743-19.75l11.268-25.802h32.736l-16.512 37.808c-2.461 5.639-7.971 9.002-13.753 9.002zm50.258 159.996c0 8.284-6.716 15-15 15s-15-6.716-15-15v-110c0-8.284 6.716-15 15-15s15 6.716 15 15zm90 0c0 8.284-6.716 15-15 15s-15-6.716-15-15v-110c0-8.284 6.716-15 15-15s15 6.716 15 15zm90 0c0 8.284-6.716 15-15 15s-15-6.716-15-15v-110c0-8.284 6.716-15 15-15s15 6.716 15 15zm26.253-161.254c-1.954.854-3.991 1.258-5.995 1.258-5.782 0-11.292-3.362-13.754-9.001l-16.512-37.808h32.736l11.268 25.802c3.316 7.592-.151 16.434-7.743 19.749z"/></svg>