<svg xmlns="http://www.w3.org/2000/svg" xmlns:xlink="http://www.w3.org/1999/xlink" viewBox="0 0 22 27.5" version="1.1" x="0px" y="0px"><title>cat_1</title><desc>Created with Sketch.</desc><g stroke="none" stroke-width="1" fill="none" fill-rule="evenodd"><g transform="translate(-9.000000, -10.000000)" fill="#000000"><path d="M9,11.999615 C9,10.8952581 9.88743329,10 10.999615,10 L17.000385,10 C18.1047419,10 19,10.8874333 19,11.999615 L19,18.000385 C19,19.1047419 18.1125667,20 17.000385,20 L10.999615,20 C9.89525812,20 9,19.1125667 9,18.000385 L9,11.999615 Z M9,23.999615 C9,22.8952581 9.88743329,22 10.999615,22 L17.000385,22 C18.1047419,22 19,22.8874333 19,23.999615 L19,30.000385 C19,31.1047419 18.1125667,32 17.000385,32 L10.999615,32 C9.89525812,32 9,31.1125667 9,30.000385 L9,23.999615 Z M21,23.999615 C21,22.8952581 21.8874333,22 22.999615,22 L29.000385,22 C30.1047419,22 31,22.8874333 31,23.999615 L31,30.000385 C31,31.1047419 30.1125667,32 29.000385,32 L22.999615,32 C21.8952581,32 21,31.1125667 21,30.000385 L21,23.999615 Z M21,11.999615 C21,10.8952581 21.8874333,10 22.999615,10 L29.000385,10 C30.1047419,10 31,10.8874333 31,11.999615 L31,18.000385 C31,19.1047419 30.1125667,20 29.000385,20 L22.999615,20 C21.8952581,20 21,19.1125667 21,18.000385 L21,11.999615 Z"/></g></g><text x="0" y="37" fill="#000000" font-size="5px" font-weight="bold" font-family="'Helvetica Neue', Helvetica, Arial-Unicode, Arial, Sans-serif">Created by Philip Belov</text><text x="0" y="42" fill="#000000" font-size="5px" font-weight="bold" font-family="'Helvetica Neue', Helvetica, Arial-Unicode, Arial, Sans-serif">from the Noun Project</text></svg>