<svg id="Capa_1" enable-background="new 0 0 512 512" height="512" viewBox="0 0 512 512" width="512" xmlns="http://www.w3.org/2000/svg"><g><path d="m469.5 256c0 48.07-15.886 92.43-42.696 128.115-38.952 51.848-95.996 76.502-165.838 76.502-117.913 0-208.534-86.704-208.534-204.617 0-68.407 22.24-129.3 72.28-168.374 36.212-28.277 81.782-45.126 131.288-45.126 117.913 0 213.5 95.587 213.5 213.5z" fill="#e3e0e4"/><path d="m433.97 373.97c-38.24 57.58-103.67 95.53-177.97 95.53-117.91 0-213.5-95.59-213.5-213.5 0-74.3 37.95-139.73 95.53-177.97-22.45 33.79-35.53 74.35-35.53 117.97 0 117.91 95.59 213.5 213.5 213.5 43.62 0 84.18-13.08 117.97-35.53z" fill="#d4cfd5"/><path d="m430.674 11.078 7.746 15.493c.194.387.507.701.894.894l15.493 7.746c1.474.737 1.474 2.841 0 3.578l-15.493 7.746c-.387.194-.701.507-.894.894l-7.746 15.493c-.737 1.474-2.841 1.474-3.578 0l-7.746-15.492c-.194-.387-.507-.701-.894-.894l-15.493-7.746c-1.474-.737-1.474-2.841 0-3.578l15.493-7.746c.387-.194.701-.507.894-.894l7.746-15.493c.737-1.475 2.841-1.475 3.578-.001z" fill="#5d91b9"/><path d="m68.211 500.922-7.746-15.493c-.194-.387-.507-.701-.894-.894l-15.493-7.746c-1.474-.737-1.474-2.841 0-3.578l15.493-7.746c.387-.194.701-.507.894-.894l7.746-15.493c.737-1.474 2.841-1.474 3.578 0l7.746 15.493c.194.387.507.701.894.894l15.493 7.746c1.474.737 1.474 2.841 0 3.578l-15.493 7.746c-.387.194-.701.507-.894.894l-7.746 15.493c-.737 1.474-2.841 1.474-3.578 0z" fill="#5d91b9"/><path d="m504.186 376.5h-3.686c-.552 0-1-.448-1-1v-3.686c0-4.107-3.165-7.688-7.27-7.811-4.247-.127-7.73 3.278-7.73 7.497v4c0 .552-.448 1-1 1h-3.686c-4.107 0-7.688 3.164-7.811 7.269-.128 4.247 3.277 7.731 7.497 7.731h4c.552 0 1 .448 1 1v3.686c0 4.107 3.165 7.688 7.27 7.811 4.247.127 7.73-3.278 7.73-7.497v-4c0-.552.448-1 1-1h4c4.219 0 7.624-3.483 7.497-7.731-.124-4.105-3.705-7.269-7.811-7.269z" fill="#f3d332"/><path d="m32.186 110.5h-3.686c-.552 0-1-.448-1-1v-3.686c0-4.107-3.165-7.688-7.27-7.811-4.247-.127-7.73 3.278-7.73 7.497v4c0 .552-.448 1-1 1h-3.686c-4.107 0-7.688 3.164-7.811 7.269-.128 4.247 3.277 7.731 7.497 7.731h4c.552 0 1 .448 1 1v3.686c0 4.107 3.165 7.688 7.27 7.811 4.247.127 7.73-3.278 7.73-7.497v-4c0-.552.448-1 1-1h4c4.219 0 7.624-3.483 7.497-7.731-.124-4.105-3.705-7.269-7.811-7.269z" fill="#f3d332"/><path d="m194 224c0 5.247-1.063 10.245-2.986 14.791-5.769 13.639-19.104 17.709-34.844 17.709-20.987 0-30.745-10.013-30.745-31 0-15.68 2.071-30.641 15.626-36.447 4.589-1.965 9.642-3.053 14.949-3.053 20.987 0 38 17.013 38 38z" fill="#d4cfd5"/><path d="m288.5 383.5c0 8.686-2.914 16.691-7.818 23.091-6.945 9.064-17.881 8.238-30.182 8.238-20.987 0-38-10.343-38-31.33s17.013-38 38-38 38 17.014 38 38.001z" fill="#d4cfd5"/><path d="m280.68 406.59c-6.94 9.07-17.88 14.91-30.18 14.91-20.99 0-38-17.01-38-38 0-.24 0-.48.01-.72 20.83 11.57 43.8 19.76 68.17 23.81z" fill="#c5bec6"/><path d="m378.5 172.5c0 4.425-1.25 8.558-3.415 12.066-4.051 6.562-10.658 9.328-18.936 9.328-12.703 0-21.362-8.481-21.362-21.184 0-9.192 3.105-17.335 10.899-21.017 2.977-1.406 6.303-2.193 9.814-2.193 12.703 0 23 10.297 23 23z" fill="#d4cfd5"/><path d="m395.5 348.5c0 3.035-.588 5.933-1.656 8.586-3.402 8.45-11.677 10.085-21.344 10.085-12.703 0-16.351-5.758-16.351-18.46 0-11.115 1.235-20.598 11.716-22.743 1.497-.306 3.047-.467 4.635-.467 12.703-.001 23 10.296 23 22.999z" fill="#d4cfd5"/><path d="m190.95 238.95c-5.8 13.55-19.27 23.05-34.95 23.05-20.99 0-38-17.01-38-38 0-15.68 9.5-29.15 23.05-34.95-1.96 4.59-3.05 9.64-3.05 14.95 0 20.99 17.01 38 38 38 5.31 0 10.36-1.09 14.95-3.05z" fill="#c5bec6"/><path d="m376.83 181.08c-3.39 8.45-11.66 14.42-21.33 14.42-12.7 0-23-10.3-23-23 0-11.22 8.04-20.57 18.67-22.58-1.08 2.65-1.67 5.55-1.67 8.58 0 12.7 10.3 23 23 23 1.48 0 2.93-.14 4.33-.42z" fill="#c5bec6"/><path d="m393.83 357.08c-3.39 8.45-11.66 14.42-21.33 14.42-12.7 0-23-10.3-23-23 0-11.22 8.04-20.57 18.67-22.58-1.08 2.65-1.67 5.55-1.67 8.58 0 12.7 10.3 23 23 23 1.48 0 2.93-.14 4.33-.42z" fill="#c5bec6"/><circle cx="264.5" cy="110" fill="#d4cfd5" r="15.5"/><circle cx="254" cy="243" fill="#d4cfd5" r="17.5"/><circle cx="94" cy="298" fill="#c5bec6" r="14.5"/><circle cx="400" cy="271" fill="#d4cfd5" r="14.5"/><circle cx="163.5" cy="149.5" fill="#d4cfd5" r="7.33"/><circle cx="152.5" cy="351.5" fill="#c5bec6" r="7.33"/><g fill="#d4cfd5"><circle cx="345.5" cy="399.5" r="7.33"/><circle cx="429.5" cy="218.5" r="7.33"/><circle cx="325.5" cy="107.5" r="7.33"/></g></g></svg>