<?xml version="1.0"?>
<svg xmlns="http://www.w3.org/2000/svg" id="Layer_1" data-name="Layer 1" viewBox="0 0 512 512" width="512" height="512"><title>Commercial delivery </title><g id="_Group_2" data-name=" Group 2"><path d="M496,254.18v202.1a23.091,23.091,0,0,1-23.08,23.09H335.89a23.084,23.084,0,0,1-23.08-23.09V254.18a23.076,23.076,0,0,1,23.08-23.08h31.17v.07a17.156,17.156,0,0,0,17.16,17.16h40.37a17.156,17.156,0,0,0,17.16-17.16v-.07h31.17A23.082,23.082,0,0,1,496,254.18ZM376.92,382.13V349.15H343.95v32.98Z" style="fill:#f8ec7d"/><path d="M367.06,231.1v-1.05a17.156,17.156,0,0,1,17.16-17.16h40.37a17.156,17.156,0,0,1,17.16,17.16v1.12a17.156,17.156,0,0,1-17.16,17.16H384.22a17.156,17.156,0,0,1-17.16-17.16Z" style="fill:#6fe3ff"/><path d="M391.31,140.98v71.91h-7.09a17.156,17.156,0,0,0-17.16,17.16v1.05H335.89a23.076,23.076,0,0,0-23.08,23.08v148.8L203.65,466V249.3L391.29,140.97Z" style="fill:#c16752"/><polygon points="203.65 249.3 107.99 194.07 295.62 85.73 295.63 85.73 391.29 140.97 203.65 249.3" style="fill:#af593c"/><rect x="343.95" y="349.15" width="32.97" height="32.98" style="fill:#6fe3ff"/><polygon points="295.62 85.73 107.99 194.07 16.02 140.97 203.65 32.63 295.62 85.73" style="fill:#c16752"/><polygon points="203.65 249.3 203.65 466 16 357.66 16 140.98 16.02 140.97 107.99 194.07 203.65 249.3" style="fill:#e48e66"/><path d="M351.28,325.01h-7.33a7,7,0,0,1-7-7V285.03a7,7,0,0,1,7-7h32.97a7,7,0,0,1,7,7v4.71a7,7,0,0,1-13.617,2.29H350.95v18.98h.33a7,7,0,0,1,0,14Z" style="fill:#6fe3ff"/><path d="M351.28,453.24h-7.33a7,7,0,0,1-7-7V413.27a7,7,0,0,1,7-7h32.97a7,7,0,0,1,7,7v6.74a7,7,0,0,1-14,.26H350.95v18.97h.33a7,7,0,0,1,0,14Z" style="fill:#6fe3ff"/><path d="M372.54,323.99a6.972,6.972,0,0,1-4.947-2.048L356.4,310.762a7,7,0,1,1,9.9-9.9l6.241,6.235,20.5-20.5a7,7,0,1,1,9.9,9.9l-25.45,25.45A6.979,6.979,0,0,1,372.54,323.99Z" style="fill:#2561a1"/><path d="M372.54,453.24a6.972,6.972,0,0,1-4.947-2.048L356.4,440.012a7,7,0,1,1,9.9-9.9l6.241,6.235,20.5-20.5a7,7,0,1,1,9.9,9.9l-25.45,25.45A6.979,6.979,0,0,1,372.54,453.24Z" style="fill:#2561a1"/><path d="M464.86,308.52H420.89a7,7,0,0,1,0-14h43.97a7,7,0,0,1,0,14Z" style="fill:#e48e66"/><path d="M464.86,372.64H420.89a7,7,0,0,1,0-14h43.97a7,7,0,0,1,0,14Z" style="fill:#e48e66"/><path d="M464.86,436.76H420.89a7,7,0,0,1,0-14h43.97a7,7,0,0,1,0,14Z" style="fill:#e48e66"/></g></svg>
